# xmcd CD database file
#
# Track frame offsets:
#	150
#	13994
#	29508
#	42016
#	53943
#	63783
#	76574
#	86563
#	101846
#	120506
#	137679
#	152849
#	168641
#	190186
#	202877
#	215582
#
# Disc length: 3075 seconds
#
# Revision: 0
# Processed by: cddbd v1.5.2PL0 Copyright (c) Steve Scherf et al.
# Submitted via: ACXtractor (MTCDDB.DLL V2003.07.15)
#
DISCID=d30c0110
DTITLE=Marty Robins - Little RosewoodCasket
DYEAR=1998
DGENRE=Country
TTITLE0=Little Rosewood Casket
TTITLE1=The Strawberry Roan
TTITLE2=I'm so Lonesome I Could Cry
TTITLE3=The Wreck of the Number Nine
TTITLE4=The Roving Gambler
TTITLE5=The Streets of Lardeo
TTITLE6=Five Brothers
TTITLE7=I've got no Use for the Woman
TTITLE8=The air I Breath
TTITLE9=Oh My Papa
TTITLE10=She's Made of Faith
TTITLE11=I'm Just here to get my Baby out of Jail
TTITLE12=Sometimes when we Touch
TTITLE13=Don't Let me Touch You
TTITLE14=Honky Tonk Man
TTITLE15=The Performer
EXTD=ID3G:   2 YEAR: 1998
EXTT0=
EXTT1=
EXTT2=
EXTT3=
EXTT4=
EXTT5=
EXTT6=
EXTT7=
EXTT8=
EXTT9=
EXTT10=
EXTT11=
EXTT12=
EXTT13=
EXTT14=
EXTT15=
PLAYORDER=
